<svg width="152" height="152" viewBox="0 0 152 152" fill="none" xmlns="http://www.w3.org/2000/svg">
<rect width="152" height="152" rx="32" fill="black"/>
<rect x="24" y="68" width="16" height="16" rx="8" fill="#F1F1F1"/>
<rect x="24.5" y="68.5" width="15" height="15" rx="7.5" stroke="white" stroke-opacity="0.1"/>
<rect x="24" y="92" width="16" height="16" rx="8" fill="#F1F1F1"/>
<rect x="24.5" y="92.5" width="15" height="15" rx="7.5" stroke="white" stroke-opacity="0.1"/>
<rect x="48" y="44" width="16" height="16" rx="8" fill="#F1F1F1"/>
<rect x="48.5" y="44.5" width="15" height="15" rx="7.5" stroke="white" stroke-opacity="0.1"/>
<rect x="48" y="68" width="16" height="16" rx="8" fill="#F1F1F1"/>
<rect x="48.5" y="68.5" width="15" height="15" rx="7.5" stroke="white" stroke-opacity="0.1"/>
<rect x="88" y="44" width="16" height="16" rx="8" fill="#F1F1F1"/>
<rect x="88.5" y="44.5" width="15" height="15" rx="7.5" stroke="white" stroke-opacity="0.1"/>
<rect x="112" y="44" width="16" height="16" rx="8" fill="#F1F1F1"/>
<rect x="112.5" y="44.5" width="15" height="15" rx="7.5" stroke="white" stroke-opacity="0.1"/>
<rect x="112" y="68" width="16" height="16" rx="8" fill="#F1F1F1"/>
<rect x="112.5" y="68.5" width="15" height="15" rx="7.5" stroke="white" stroke-opacity="0.1"/>
</svg>
